<?xml version="1.0" standalone="no"?>
<!DOCTYPE svg PUBLIC "-//W3C//DTD SVG 20010904//EN"
 "http://www.w3.org/TR/2001/REC-SVG-20010904/DTD/svg10.dtd">
<svg version="1.0" xmlns="http://www.w3.org/2000/svg"
 width="980.000000pt" height="980.000000pt" viewBox="0 0 980.000000 980.000000"
 preserveAspectRatio="xMidYMid meet">
<metadata>
Created by potrace 1.11, written by Peter Selinger 2001-2013
</metadata>
<g transform="translate(0.000000,980.000000) scale(0.100000,-0.100000)"
fill="#000000" stroke="none">
<path d="M7004 7825 c-1386 -1502 -1770 -1923 -1774 -1947 -5 -30 -68 32
-1885 1827 -1034 1022 -1893 1866 -1910 1876 -62 39 -161 13 -257 -67 -25 -22
-245 -248 -489 -504 -243 -256 -498 -522 -565 -591 -68 -69 -124 -133 -124
-142 0 -17 69 -80 112 -103 15 -8 48 -17 73 -20 91 -13 113 5 562 462 l407
414 43 -42 42 -41 -407 -414 c-224 -228 -407 -418 -407 -422 0 -4 26 -32 58
-61 l59 -53 410 417 411 417 44 -43 43 -43 -347 -350 c-192 -192 -377 -380
-413 -417 l-64 -68 54 -55 c30 -30 58 -55 63 -55 5 0 193 186 417 413 l408
412 43 -42 43 -42 -321 -328 c-177 -180 -360 -366 -407 -413 -47 -46 -86 -89
-86 -95 0 -6 25 -35 56 -65 l56 -55 412 417 413 416 41 -41 41 -42 -411 -418
-411 -418 54 -55 c29 -30 59 -54 65 -54 7 0 195 186 418 412 l405 413 35 -34
35 -34 -407 -414 c-224 -227 -407 -417 -407 -421 0 -4 26 -32 58 -62 l59 -55
411 419 412 418 42 -44 43 -43 -410 -410 c-226 -226 -410 -415 -410 -420 0
-11 101 -115 111 -115 3 0 191 186 417 413 l412 412 42 -42 42 -42 -182 -188
c-99 -103 -282 -289 -406 -413 -124 -124 -226 -230 -226 -235 0 -6 25 -35 56
-65 l56 -55 413 417 413 416 41 -42 41 -42 -31 -30 c-17 -16 -202 -204 -412
-417 l-380 -388 53 -54 c30 -30 59 -55 65 -55 5 -1 193 185 417 412 l406 413
41 -40 c23 -21 41 -43 41 -47 0 -5 -182 -192 -405 -417 -223 -224 -405 -412
-405 -417 0 -5 25 -34 56 -64 l56 -55 414 418 414 418 43 -40 42 -40 -180
-183 c-99 -101 -285 -289 -413 -418 l-232 -235 61 -60 61 -60 411 418 412 418
34 -35 34 -35 -412 -418 -412 -417 61 -61 60 -60 412 418 411 418 44 -43 43
-43 -342 -345 c-189 -190 -375 -378 -413 -417 l-69 -73 54 -55 c30 -30 59 -55
64 -55 5 0 191 185 413 410 223 226 409 410 414 410 5 0 23 -13 40 -28 l32
-29 -413 -417 -414 -417 60 -60 60 -59 414 415 414 416 40 -41 41 -40 -180
-183 c-99 -100 -285 -288 -413 -417 l-232 -235 61 -60 61 -60 412 417 412 418
44 -45 43 -44 -412 -417 -412 -418 60 -60 61 -61 411 418 412 418 38 -37 c22
-21 39 -42 39 -48 0 -5 -183 -193 -407 -418 l-406 -409 42 -43 42 -43 -103
-22 c-345 -74 -629 -104 -998 -104 -285 -1 -454 10 -574 38 -102 24 -264 34
-385 24 -204 -16 -346 -55 -536 -148 -155 -76 -274 -161 -401 -286 -240 -237
-383 -506 -441 -830 -24 -134 -21 -353 6 -484 99 -471 440 -813 911 -912 149
-31 381 -31 530 0 272 57 505 174 720 360 69 60 2633 2413 2713 2490 44 42 48
44 64 29 15 -16 9 -24 -85 -125 -55 -59 -238 -245 -406 -413 -168 -168 -306
-309 -306 -315 0 -5 23 -33 52 -62 l52 -53 -60 -63 c-34 -34 -407 -429 -829
-877 -422 -448 -821 -869 -886 -935 -167 -170 -239 -266 -323 -434 -94 -186
-145 -379 -153 -582 -12 -274 50 -515 185 -725 174 -268 442 -446 770 -511
129 -25 375 -23 508 5 204 44 384 119 555 234 128 85 335 292 418 417 117 177
202 386 238 584 24 136 21 364 -6 492 -60 282 -52 806 19 1241 60 373 166 729
311 1046 l53 117 215 215 216 215 1870 -1850 c1029 -1018 1884 -1859 1900
-1870 24 -16 39 -18 75 -14 68 10 174 71 246 141 79 78 114 145 114 216 l0 53
-272 271 c-150 149 -1040 1028 -1978 1955 -937 926 -1705 1685 -1705 1685 0 1
156 228 346 505 416 605 1211 1772 1977 2901 l561 828 26 131 c15 72 25 133
22 135 -2 2 -800 -858 -1773 -1911z m-1225 -1915 c156 -79 155 -296 0 -374
-81 -40 -153 -32 -222 25 -58 48 -80 99 -75 175 3 50 10 72 33 106 59 82 177
113 264 68z m-1334 -130 l29 -30 -59 -63 c-33 -34 -175 -178 -315 -320 l-255
-258 -80 -25 c-44 -13 -89 -27 -100 -30 -11 -3 151 166 360 375 209 210 382
381 386 381 3 0 18 -14 34 -30z m193 -278 c-44 -44 -181 -129 -318 -197 l-75
-37 80 84 c44 45 123 127 175 180 l94 98 43 -42 43 -42 -42 -44z m-2903 -967
c295 -52 515 -244 605 -530 32 -99 39 -298 15 -415 -77 -386 -374 -717 -755
-844 -243 -81 -457 -71 -665 29 -161 78 -270 189 -345 350 -57 121 -75 208
-73 355 1 100 6 145 27 225 139 533 691 917 1191 830z m2084 -2226 c215 -54
390 -196 486 -394 98 -203 109 -415 34 -650 -140 -440 -548 -761 -994 -782
-148 -7 -270 18 -402 82 -82 40 -110 61 -188 139 -79 78 -99 105 -139 186 -60
123 -77 190 -83 330 -14 291 104 568 338 799 263 258 630 370 948 290z"/>
<path d="M9755 8885 c-5 -2 -63 -16 -127 -30 l-117 -27 -961 -653 -961 -654
-363 -533 c-200 -293 -465 -681 -589 -863 -124 -181 -224 -332 -221 -334 2 -2
14 5 27 16 291 264 3343 3068 3345 3074 4 9 -14 11 -33 4z"/>
</g>
</svg>
