<?xml version="1.0" encoding="iso-8859-1"?>
<!-- Generator: Adobe Illustrator 19.0.0, SVG Export Plug-In . SVG Version: 6.00 Build 0)  -->
<svg version="1.1" id="Capa_1" xmlns="http://www.w3.org/2000/svg" xmlns:xlink="http://www.w3.org/1999/xlink" x="0px" y="0px"
	 viewBox="0 0 512 512" style="enable-background:new 0 0 512 512;" xml:space="preserve">
<g>
	<path style="fill:#E6E7E8;" d="M136.533,503.467h238.933c18.85,0,34.133-15.283,34.133-34.133v-51.2H102.4v51.2
		C102.4,488.184,117.683,503.467,136.533,503.467z M256,443.733c9.429,0,17.067,7.637,17.067,17.067s-7.637,17.067-17.067,17.067
		c-9.429,0-17.067-7.637-17.067-17.067S246.571,443.733,256,443.733z"/>
	<path style="fill:#E6E7E8;" d="M409.6,42.667c0-18.85-15.283-34.133-34.133-34.133H136.533c-18.85,0-34.133,15.283-34.133,34.133
		v17.067h307.2V42.667z"/>
</g>
<rect x="93.867" y="59.733" style="fill:#78B9EB;" width="307.2" height="358.4"/>
<circle style="fill:#E6E7E8;" cx="256" cy="460.8" r="17.067"/>
<g>
	<path style="fill:#231F20;" d="M256,486.4c-14.14,0-25.6-11.46-25.6-25.6s11.46-25.6,25.6-25.6c14.14,0,25.6,11.46,25.6,25.6
		S270.14,486.4,256,486.4z M256,452.267c-4.71,0-8.533,3.823-8.533,8.533s3.823,8.533,8.533,8.533c4.71,0,8.533-3.823,8.533-8.533
		S260.71,452.267,256,452.267z"/>
	<path style="fill:#231F20;" d="M375.467,0H136.533c-23.552,0.026-42.641,19.115-42.667,42.667v426.667
		c0.026,23.552,19.115,42.641,42.667,42.667h238.933c23.552-0.026,42.641-19.115,42.667-42.667V42.667
		C418.108,19.115,399.019,0.026,375.467,0z M110.933,68.267h290.133V409.6H110.933V68.267z M401.067,469.333
		c0,14.14-11.46,25.6-25.6,25.6H136.533c-14.14,0-25.6-11.46-25.6-25.6v-42.667h290.133V469.333z M110.933,51.2v-8.533
		c0-14.14,11.46-25.6,25.6-25.6h238.933c14.14,0,25.6,11.46,25.6,25.6V51.2H110.933z"/>
	<path style="fill:#231F20;" d="M264.533,25.6h-17.067c-4.71,0-8.533,3.823-8.533,8.533s3.823,8.533,8.533,8.533h17.067
		c4.71,0,8.533-3.823,8.533-8.533S269.244,25.6,264.533,25.6z"/>
</g>
<g>
</g>
<g>
</g>
<g>
</g>
<g>
</g>
<g>
</g>
<g>
</g>
<g>
</g>
<g>
</g>
<g>
</g>
<g>
</g>
<g>
</g>
<g>
</g>
<g>
</g>
<g>
</g>
<g>
</g>
</svg>
